<mxfile host="Electron" modified="2023-10-18T00:40:23.847Z" agent="Mozilla/5.0 (Windows NT 10.0; Win64; x64) AppleWebKit/537.36 (KHTML, like Gecko) draw.io/22.0.0 Chrome/114.0.5735.289 Electron/25.8.3 Safari/537.36" etag="W8Y_BO-c0NRZ79dvAKWu" version="22.0.0" type="device">
  <diagram id="tcJoGeuxI8kGtLN16Q2e" name="Página-1">
    <mxGraphModel dx="16467" dy="5467" grid="0" gridSize="10" guides="1" tooltips="1" connect="1" arrows="1" fold="1" page="1" pageScale="1" pageWidth="1169" pageHeight="827" math="0" shadow="0">
      <root>
        <mxCell id="0" />
        <mxCell id="1" parent="0" />
        <mxCell id="pGkirFBkEj9R97IxPver-1" style="edgeStyle=orthogonalEdgeStyle;rounded=0;orthogonalLoop=1;jettySize=auto;html=1;" edge="1" parent="1" source="pGkirFBkEj9R97IxPver-3" target="pGkirFBkEj9R97IxPver-38">
          <mxGeometry relative="1" as="geometry" />
        </mxCell>
        <mxCell id="pGkirFBkEj9R97IxPver-2" style="edgeStyle=orthogonalEdgeStyle;rounded=0;orthogonalLoop=1;jettySize=auto;html=1;entryX=0;entryY=0.5;entryDx=0;entryDy=0;strokeColor=#FF0000;" edge="1" parent="1" source="pGkirFBkEj9R97IxPver-3" target="pGkirFBkEj9R97IxPver-40">
          <mxGeometry relative="1" as="geometry">
            <Array as="points">
              <mxPoint x="-3418" y="1303" />
            </Array>
          </mxGeometry>
        </mxCell>
        <mxCell id="pGkirFBkEj9R97IxPver-3" value="solicitou identificação do cliente" style="rounded=0;whiteSpace=wrap;html=1;fontSize=25;strokeWidth=3;fillColor=#f2a413;gradientColor=none;strokeColor=#000000;" vertex="1" parent="1">
          <mxGeometry x="-3516" y="695.5" width="200" height="200" as="geometry" />
        </mxCell>
        <mxCell id="pGkirFBkEj9R97IxPver-4" value="recebeu pagamento" style="rounded=0;whiteSpace=wrap;html=1;fontSize=21;strokeWidth=3;fillColor=#f2a413;fontStyle=0;strokeColor=#000000;dashed=1;" vertex="1" parent="1">
          <mxGeometry x="-581" y="1308" width="200" height="200" as="geometry" />
        </mxCell>
        <mxCell id="pGkirFBkEj9R97IxPver-5" style="edgeStyle=orthogonalEdgeStyle;rounded=0;orthogonalLoop=1;jettySize=auto;html=1;entryX=0;entryY=0.5;entryDx=0;entryDy=0;strokeColor=#FF0000;" edge="1" parent="1" source="pGkirFBkEj9R97IxPver-6" target="pGkirFBkEj9R97IxPver-4">
          <mxGeometry relative="1" as="geometry" />
        </mxCell>
        <mxCell id="pGkirFBkEj9R97IxPver-6" value="cadastrou pedido&lt;br&gt;no sistema" style="rounded=0;whiteSpace=wrap;html=1;fontSize=21;strokeWidth=3;fillColor=#f2a413;fontStyle=0;strokeColor=#000000;dashed=1;" vertex="1" parent="1">
          <mxGeometry x="-930" y="1308" width="200" height="200" as="geometry" />
        </mxCell>
        <mxCell id="pGkirFBkEj9R97IxPver-7" style="edgeStyle=orthogonalEdgeStyle;rounded=0;orthogonalLoop=1;jettySize=auto;html=1;" edge="1" parent="1" source="pGkirFBkEj9R97IxPver-8" target="pGkirFBkEj9R97IxPver-31">
          <mxGeometry relative="1" as="geometry" />
        </mxCell>
        <mxCell id="pGkirFBkEj9R97IxPver-8" value="recebeu pedido" style="rounded=0;whiteSpace=wrap;html=1;fontSize=25;strokeWidth=3;fillColor=#f2a413;fontStyle=0;strokeColor=#000000;" vertex="1" parent="1">
          <mxGeometry x="2396" y="697.5" width="200" height="200" as="geometry" />
        </mxCell>
        <mxCell id="pGkirFBkEj9R97IxPver-9" style="edgeStyle=orthogonalEdgeStyle;rounded=0;orthogonalLoop=1;jettySize=auto;html=1;entryX=0;entryY=0.5;entryDx=0;entryDy=0;" edge="1" parent="1" source="pGkirFBkEj9R97IxPver-10" target="pGkirFBkEj9R97IxPver-120">
          <mxGeometry relative="1" as="geometry" />
        </mxCell>
        <mxCell id="pGkirFBkEj9R97IxPver-10" value="&lt;div style=&quot;font-size: 25px&quot;&gt;&lt;span style=&quot;background-color: initial;&quot;&gt;exibiu tela inicial&lt;/span&gt;&lt;br&gt;&lt;/div&gt;" style="rounded=0;whiteSpace=wrap;html=1;fontSize=25;strokeWidth=3;fillColor=#f2a413;fontStyle=0;strokeColor=#000000;" vertex="1" parent="1">
          <mxGeometry x="-4437" y="696.5" width="200" height="200" as="geometry" />
        </mxCell>
        <mxCell id="pGkirFBkEj9R97IxPver-11" style="edgeStyle=orthogonalEdgeStyle;rounded=0;orthogonalLoop=1;jettySize=auto;html=1;entryX=0;entryY=0.5;entryDx=0;entryDy=0;strokeColor=#FF0000;" edge="1" parent="1" source="pGkirFBkEj9R97IxPver-12" target="pGkirFBkEj9R97IxPver-56">
          <mxGeometry relative="1" as="geometry" />
        </mxCell>
        <mxCell id="pGkirFBkEj9R97IxPver-12" value="devolveu pedido" style="rounded=0;whiteSpace=wrap;html=1;fontSize=21;strokeWidth=3;fillColor=#f2a413;fontStyle=0;strokeColor=#000000;dashed=1;" vertex="1" parent="1">
          <mxGeometry x="-18" y="1671" width="200" height="200" as="geometry" />
        </mxCell>
        <mxCell id="pGkirFBkEj9R97IxPver-13" value="&lt;div style=&quot;font-size: 25px;&quot;&gt;atualizou cadastro de produtos no sistema&lt;/div&gt;" style="rounded=0;whiteSpace=wrap;html=1;fontSize=25;strokeWidth=3;fillColor=#f2a413;fontStyle=0;strokeColor=#000000;" vertex="1" parent="1">
          <mxGeometry x="-5474" y="927" width="200" height="200" as="geometry" />
        </mxCell>
        <mxCell id="pGkirFBkEj9R97IxPver-14" style="edgeStyle=orthogonalEdgeStyle;rounded=0;orthogonalLoop=1;jettySize=auto;html=1;entryX=0;entryY=0.5;entryDx=0;entryDy=0;" edge="1" parent="1" source="pGkirFBkEj9R97IxPver-15" target="pGkirFBkEj9R97IxPver-46">
          <mxGeometry relative="1" as="geometry" />
        </mxCell>
        <mxCell id="pGkirFBkEj9R97IxPver-15" value="&lt;div style=&quot;font-size: 25px;&quot;&gt;Exibiu tela de comprovante do pedido&lt;/div&gt;" style="rounded=0;whiteSpace=wrap;html=1;fontSize=25;strokeWidth=3;fillColor=#f2a413;fontStyle=0;strokeColor=#000000;" vertex="1" parent="1">
          <mxGeometry x="-900" y="696.5" width="200" height="200" as="geometry" />
        </mxCell>
        <mxCell id="pGkirFBkEj9R97IxPver-16" value="notificou &lt;br&gt;o gerente falta de item no estoque" style="rounded=0;whiteSpace=wrap;html=1;fontSize=25;strokeWidth=3;fillColor=#f2a413;fontStyle=0;dashed=1;" vertex="1" parent="1">
          <mxGeometry x="1101" y="1127.5" width="200" height="200" as="geometry" />
        </mxCell>
        <mxCell id="pGkirFBkEj9R97IxPver-17" style="edgeStyle=orthogonalEdgeStyle;rounded=0;orthogonalLoop=1;jettySize=auto;html=1;" edge="1" parent="1" source="pGkirFBkEj9R97IxPver-18" target="pGkirFBkEj9R97IxPver-131">
          <mxGeometry relative="1" as="geometry" />
        </mxCell>
        <mxCell id="pGkirFBkEj9R97IxPver-18" value="Exibiu oferta promocional&amp;nbsp;" style="rounded=0;whiteSpace=wrap;html=1;fontSize=25;strokeWidth=3;fillColor=#f2a413;fontStyle=0;strokeColor=#000000;" vertex="1" parent="1">
          <mxGeometry x="-2857" y="696.5" width="200" height="200" as="geometry" />
        </mxCell>
        <mxCell id="pGkirFBkEj9R97IxPver-19" style="edgeStyle=orthogonalEdgeStyle;rounded=0;orthogonalLoop=1;jettySize=auto;html=1;entryX=0;entryY=0.5;entryDx=0;entryDy=0;strokeColor=#FF0000;" edge="1" parent="1" source="pGkirFBkEj9R97IxPver-20" target="pGkirFBkEj9R97IxPver-143">
          <mxGeometry relative="1" as="geometry" />
        </mxCell>
        <mxCell id="pGkirFBkEj9R97IxPver-20" value="enfrentou falha ao executar comando" style="rounded=0;whiteSpace=wrap;html=1;fontSize=21;strokeWidth=3;fillColor=#f2a413;fontStyle=0;strokeColor=#000000;dashed=1;" vertex="1" parent="1">
          <mxGeometry x="-1582" y="1308" width="200" height="200" as="geometry" />
        </mxCell>
        <mxCell id="pGkirFBkEj9R97IxPver-21" style="edgeStyle=orthogonalEdgeStyle;rounded=0;orthogonalLoop=1;jettySize=auto;html=1;entryX=0.5;entryY=1;entryDx=0;entryDy=0;strokeColor=#FF0000;" edge="1" parent="1" source="pGkirFBkEj9R97IxPver-22" target="pGkirFBkEj9R97IxPver-44">
          <mxGeometry relative="1" as="geometry">
            <Array as="points">
              <mxPoint x="-1722" y="1287" />
            </Array>
          </mxGeometry>
        </mxCell>
        <mxCell id="pGkirFBkEj9R97IxPver-22" value="&lt;div style=&quot;font-size: 25px;&quot;&gt;editou carrinho do pedido&lt;/div&gt;" style="rounded=0;whiteSpace=wrap;html=1;fontSize=25;strokeWidth=3;fillColor=#f2a413;fontStyle=0;strokeColor=#000000;dashed=1;" vertex="1" parent="1">
          <mxGeometry x="-1974" y="1187" width="200" height="200" as="geometry" />
        </mxCell>
        <mxCell id="pGkirFBkEj9R97IxPver-23" style="edgeStyle=orthogonalEdgeStyle;rounded=0;orthogonalLoop=1;jettySize=auto;html=1;" edge="1" parent="1" source="pGkirFBkEj9R97IxPver-24" target="pGkirFBkEj9R97IxPver-3">
          <mxGeometry relative="1" as="geometry" />
        </mxCell>
        <mxCell id="pGkirFBkEj9R97IxPver-24" value="exibiu menu" style="rounded=0;whiteSpace=wrap;html=1;fontSize=25;strokeWidth=3;fillColor=#f2a413;fontStyle=0;strokeColor=#000000;" vertex="1" parent="1">
          <mxGeometry x="-3819" y="695.5" width="200" height="200" as="geometry" />
        </mxCell>
        <mxCell id="pGkirFBkEj9R97IxPver-25" style="edgeStyle=orthogonalEdgeStyle;rounded=0;orthogonalLoop=1;jettySize=auto;html=1;" edge="1" parent="1" source="pGkirFBkEj9R97IxPver-26" target="pGkirFBkEj9R97IxPver-61">
          <mxGeometry relative="1" as="geometry" />
        </mxCell>
        <mxCell id="pGkirFBkEj9R97IxPver-26" value="atualizou&amp;nbsp;status do pedido no sistema&lt;br&gt;&quot;RECEBIDO&quot;" style="rounded=0;whiteSpace=wrap;html=1;fontSize=25;strokeWidth=3;fillColor=#f2a413;strokeColor=#FF0000;fontStyle=0" vertex="1" parent="1">
          <mxGeometry x="461" y="695.5" width="216.5" height="203" as="geometry" />
        </mxCell>
        <mxCell id="pGkirFBkEj9R97IxPver-27" style="edgeStyle=orthogonalEdgeStyle;rounded=0;orthogonalLoop=1;jettySize=auto;html=1;entryX=0;entryY=0.5;entryDx=0;entryDy=0;" edge="1" parent="1" source="pGkirFBkEj9R97IxPver-28" target="pGkirFBkEj9R97IxPver-59">
          <mxGeometry relative="1" as="geometry" />
        </mxCell>
        <mxCell id="pGkirFBkEj9R97IxPver-28" value="atualizou&amp;nbsp;status do pedido no sistema&lt;br&gt;&quot;EM PREPARO&quot;" style="rounded=0;whiteSpace=wrap;html=1;fontSize=25;strokeWidth=3;fillColor=#f2a413;strokeColor=#FF0000;fontStyle=0" vertex="1" parent="1">
          <mxGeometry x="1072" y="695.5" width="216.5" height="203" as="geometry" />
        </mxCell>
        <mxCell id="pGkirFBkEj9R97IxPver-29" style="edgeStyle=orthogonalEdgeStyle;rounded=0;orthogonalLoop=1;jettySize=auto;html=1;" edge="1" parent="1" source="pGkirFBkEj9R97IxPver-30">
          <mxGeometry relative="1" as="geometry">
            <mxPoint x="2394.9998953683044" y="799" as="targetPoint" />
          </mxGeometry>
        </mxCell>
        <mxCell id="pGkirFBkEj9R97IxPver-30" value="atualizou status do pedido no sistema&lt;br&gt;&quot;PRONTO&quot;" style="rounded=0;whiteSpace=wrap;html=1;fontSize=25;strokeWidth=3;fillColor=#f2a413;strokeColor=#FF0000;fontStyle=0" vertex="1" parent="1">
          <mxGeometry x="2036" y="697.5" width="216.5" height="203" as="geometry" />
        </mxCell>
        <mxCell id="pGkirFBkEj9R97IxPver-31" value="atualizou&lt;br&gt;status do pedido no sistema&lt;br&gt;&quot;FINALIZADO&quot;" style="rounded=0;whiteSpace=wrap;html=1;fontSize=25;strokeWidth=3;fillColor=#f2a413;strokeColor=#FF0000;fontStyle=0" vertex="1" parent="1">
          <mxGeometry x="2735" y="697.5" width="216.5" height="203" as="geometry" />
        </mxCell>
        <mxCell id="pGkirFBkEj9R97IxPver-32" style="edgeStyle=orthogonalEdgeStyle;rounded=0;orthogonalLoop=1;jettySize=auto;html=1;entryX=0;entryY=0.5;entryDx=0;entryDy=0;" edge="1" parent="1" source="pGkirFBkEj9R97IxPver-33" target="pGkirFBkEj9R97IxPver-101">
          <mxGeometry relative="1" as="geometry">
            <Array as="points">
              <mxPoint x="-140" y="143" />
            </Array>
          </mxGeometry>
        </mxCell>
        <mxCell id="pGkirFBkEj9R97IxPver-33" value="exibiu likert" style="rounded=0;whiteSpace=wrap;html=1;fontSize=25;strokeWidth=3;fillColor=#f2a413;fontStyle=0;strokeColor=#000000;" vertex="1" parent="1">
          <mxGeometry x="-269" y="697.5" width="200" height="200" as="geometry" />
        </mxCell>
        <mxCell id="pGkirFBkEj9R97IxPver-34" value="Gerenciou&lt;br&gt;clientes" style="rounded=0;whiteSpace=wrap;html=1;fontSize=25;strokeWidth=3;fillColor=#f2a413;fontStyle=0;strokeColor=#FF8000;" vertex="1" parent="1">
          <mxGeometry x="-2479" y="1533" width="200" height="200" as="geometry" />
        </mxCell>
        <mxCell id="pGkirFBkEj9R97IxPver-35" style="edgeStyle=orthogonalEdgeStyle;rounded=0;orthogonalLoop=1;jettySize=auto;html=1;entryX=0;entryY=0.5;entryDx=0;entryDy=0;" edge="1" parent="1" source="pGkirFBkEj9R97IxPver-36" target="pGkirFBkEj9R97IxPver-30">
          <mxGeometry relative="1" as="geometry" />
        </mxCell>
        <mxCell id="pGkirFBkEj9R97IxPver-36" value="finalizou e entregou o pedido para o atendente" style="rounded=0;whiteSpace=wrap;html=1;fontSize=25;strokeWidth=3;fillColor=#f2a413;fontStyle=0;strokeColor=#000000;" vertex="1" parent="1">
          <mxGeometry x="1708" y="699" width="200" height="200" as="geometry" />
        </mxCell>
        <mxCell id="pGkirFBkEj9R97IxPver-37" style="edgeStyle=orthogonalEdgeStyle;rounded=0;orthogonalLoop=1;jettySize=auto;html=1;" edge="1" parent="1" source="pGkirFBkEj9R97IxPver-38" target="pGkirFBkEj9R97IxPver-18">
          <mxGeometry relative="1" as="geometry" />
        </mxCell>
        <mxCell id="pGkirFBkEj9R97IxPver-38" value="fez cadastro" style="rounded=0;whiteSpace=wrap;html=1;fontSize=25;strokeWidth=3;fillColor=#f2a413;strokeColor=#000000;" vertex="1" parent="1">
          <mxGeometry x="-3206" y="695.5" width="200" height="200" as="geometry" />
        </mxCell>
        <mxCell id="pGkirFBkEj9R97IxPver-39" style="edgeStyle=orthogonalEdgeStyle;rounded=0;orthogonalLoop=1;jettySize=auto;html=1;strokeColor=#FF0000;" edge="1" parent="1" source="pGkirFBkEj9R97IxPver-40">
          <mxGeometry relative="1" as="geometry">
            <mxPoint x="-2450.0001220703125" y="897.5000305175781" as="targetPoint" />
          </mxGeometry>
        </mxCell>
        <mxCell id="pGkirFBkEj9R97IxPver-40" value="não&lt;br&gt;&amp;nbsp;se identificou" style="rounded=0;whiteSpace=wrap;html=1;fontSize=25;strokeWidth=3;fillColor=#f2a413;strokeColor=#000000;dashed=1;" vertex="1" parent="1">
          <mxGeometry x="-3211" y="1203" width="200" height="200" as="geometry" />
        </mxCell>
        <mxCell id="pGkirFBkEj9R97IxPver-41" style="edgeStyle=orthogonalEdgeStyle;rounded=0;orthogonalLoop=1;jettySize=auto;html=1;" edge="1" parent="1" source="pGkirFBkEj9R97IxPver-42" target="pGkirFBkEj9R97IxPver-15">
          <mxGeometry relative="1" as="geometry" />
        </mxCell>
        <mxCell id="pGkirFBkEj9R97IxPver-42" value="realizou pagamento" style="rounded=0;whiteSpace=wrap;html=1;fontSize=25;strokeWidth=3;fillColor=#f2a413;strokeColor=#000000;" vertex="1" parent="1">
          <mxGeometry x="-1212" y="695.5" width="200" height="200" as="geometry" />
        </mxCell>
        <mxCell id="pGkirFBkEj9R97IxPver-43" style="edgeStyle=orthogonalEdgeStyle;rounded=0;orthogonalLoop=1;jettySize=auto;html=1;entryX=0;entryY=0.5;entryDx=0;entryDy=0;" edge="1" parent="1" source="pGkirFBkEj9R97IxPver-44" target="pGkirFBkEj9R97IxPver-48">
          <mxGeometry relative="1" as="geometry" />
        </mxCell>
        <mxCell id="pGkirFBkEj9R97IxPver-44" value="exibiu tela&lt;br&gt;&amp;nbsp;de revisão do pedido" style="rounded=0;whiteSpace=wrap;html=1;fontSize=25;strokeWidth=3;fillColor=#f2a413;strokeColor=#000000;" vertex="1" parent="1">
          <mxGeometry x="-1822.5" y="695.5" width="200" height="200" as="geometry" />
        </mxCell>
        <mxCell id="pGkirFBkEj9R97IxPver-45" style="edgeStyle=orthogonalEdgeStyle;rounded=0;orthogonalLoop=1;jettySize=auto;html=1;" edge="1" parent="1" source="pGkirFBkEj9R97IxPver-46" target="pGkirFBkEj9R97IxPver-33">
          <mxGeometry relative="1" as="geometry" />
        </mxCell>
        <mxCell id="pGkirFBkEj9R97IxPver-46" value="imprimiu comprovante e senha" style="rounded=0;whiteSpace=wrap;html=1;fontSize=25;strokeWidth=3;fillColor=#f2a413;strokeColor=#000000;" vertex="1" parent="1">
          <mxGeometry x="-602" y="696.5" width="200" height="200" as="geometry" />
        </mxCell>
        <mxCell id="pGkirFBkEj9R97IxPver-47" style="edgeStyle=orthogonalEdgeStyle;rounded=0;orthogonalLoop=1;jettySize=auto;html=1;" edge="1" parent="1" source="pGkirFBkEj9R97IxPver-48" target="pGkirFBkEj9R97IxPver-42">
          <mxGeometry relative="1" as="geometry" />
        </mxCell>
        <mxCell id="pGkirFBkEj9R97IxPver-48" value="exibiu tela com opções de pagamento" style="rounded=0;whiteSpace=wrap;html=1;fontSize=25;strokeWidth=3;fillColor=#f2a413;strokeColor=#000000;" vertex="1" parent="1">
          <mxGeometry x="-1504" y="695" width="200" height="200" as="geometry" />
        </mxCell>
        <mxCell id="pGkirFBkEj9R97IxPver-49" style="edgeStyle=orthogonalEdgeStyle;rounded=0;orthogonalLoop=1;jettySize=auto;html=1;" edge="1" parent="1" source="pGkirFBkEj9R97IxPver-50" target="pGkirFBkEj9R97IxPver-26">
          <mxGeometry relative="1" as="geometry" />
        </mxCell>
        <mxCell id="pGkirFBkEj9R97IxPver-50" value="gerou pedido para a cozinha" style="rounded=0;whiteSpace=wrap;html=1;fontSize=25;strokeWidth=3;fillColor=#f2a413;strokeColor=#000000;" vertex="1" parent="1">
          <mxGeometry x="148" y="697.5" width="200" height="200" as="geometry" />
        </mxCell>
        <mxCell id="pGkirFBkEj9R97IxPver-51" style="edgeStyle=orthogonalEdgeStyle;rounded=0;orthogonalLoop=1;jettySize=auto;html=1;strokeColor=#FF0000;" edge="1" parent="1" source="pGkirFBkEj9R97IxPver-52" target="pGkirFBkEj9R97IxPver-12">
          <mxGeometry relative="1" as="geometry" />
        </mxCell>
        <mxCell id="pGkirFBkEj9R97IxPver-52" value="errou o pedido" style="rounded=0;whiteSpace=wrap;html=1;fontSize=25;strokeWidth=3;fillColor=#f2a413;dashed=1;" vertex="1" parent="1">
          <mxGeometry x="-415" y="1671" width="200" height="200" as="geometry" />
        </mxCell>
        <mxCell id="pGkirFBkEj9R97IxPver-53" style="edgeStyle=orthogonalEdgeStyle;rounded=0;orthogonalLoop=1;jettySize=auto;html=1;entryX=0.5;entryY=0;entryDx=0;entryDy=0;" edge="1" parent="1" source="pGkirFBkEj9R97IxPver-54" target="pGkirFBkEj9R97IxPver-18">
          <mxGeometry relative="1" as="geometry">
            <Array as="points">
              <mxPoint x="-4725" y="429" />
              <mxPoint x="-2757" y="429" />
            </Array>
          </mxGeometry>
        </mxCell>
        <mxCell id="pGkirFBkEj9R97IxPver-54" value="cadastrou cupom promocional" style="rounded=0;whiteSpace=wrap;html=1;fontSize=25;strokeWidth=3;fillColor=#f2a413;strokeColor=#000000;" vertex="1" parent="1">
          <mxGeometry x="-4825" y="703" width="200" height="200" as="geometry" />
        </mxCell>
        <mxCell id="pGkirFBkEj9R97IxPver-55" value="gerenciou funcionários" style="rounded=0;whiteSpace=wrap;html=1;fontSize=25;strokeWidth=3;fillColor=#f2a413;strokeColor=#000000;" vertex="1" parent="1">
          <mxGeometry x="-5813" y="717" width="200" height="200" as="geometry" />
        </mxCell>
        <mxCell id="pGkirFBkEj9R97IxPver-56" value="atuou em pedidos executados" style="rounded=0;whiteSpace=wrap;html=1;fontSize=25;strokeWidth=3;fillColor=#f2a413;dashed=1;" vertex="1" parent="1">
          <mxGeometry x="355" y="1671" width="200" height="200" as="geometry" />
        </mxCell>
        <mxCell id="pGkirFBkEj9R97IxPver-57" value="gerenciou estoque" style="rounded=0;whiteSpace=wrap;html=1;fontSize=25;strokeWidth=3;fillColor=#f2a413;strokeColor=#000000;" vertex="1" parent="1">
          <mxGeometry x="-5474" y="540" width="200" height="200" as="geometry" />
        </mxCell>
        <mxCell id="pGkirFBkEj9R97IxPver-58" style="edgeStyle=orthogonalEdgeStyle;rounded=0;orthogonalLoop=1;jettySize=auto;html=1;entryX=0;entryY=0.5;entryDx=0;entryDy=0;" edge="1" parent="1" source="pGkirFBkEj9R97IxPver-59" target="pGkirFBkEj9R97IxPver-36">
          <mxGeometry relative="1" as="geometry" />
        </mxCell>
        <mxCell id="pGkirFBkEj9R97IxPver-59" value="executou pedido" style="rounded=0;whiteSpace=wrap;html=1;fontSize=25;strokeWidth=3;fillColor=#f2a413;strokeColor=#000000;" vertex="1" parent="1">
          <mxGeometry x="1402" y="697.5" width="200" height="200" as="geometry" />
        </mxCell>
        <mxCell id="pGkirFBkEj9R97IxPver-60" style="edgeStyle=orthogonalEdgeStyle;rounded=0;orthogonalLoop=1;jettySize=auto;html=1;entryX=0;entryY=0.5;entryDx=0;entryDy=0;" edge="1" parent="1" source="pGkirFBkEj9R97IxPver-61" target="pGkirFBkEj9R97IxPver-28">
          <mxGeometry relative="1" as="geometry" />
        </mxCell>
        <mxCell id="pGkirFBkEj9R97IxPver-61" value="recebeu pedido" style="rounded=0;whiteSpace=wrap;html=1;fontSize=25;strokeWidth=3;fillColor=#f2a413;strokeColor=#000000;" vertex="1" parent="1">
          <mxGeometry x="778" y="697.5" width="200" height="200" as="geometry" />
        </mxCell>
        <mxCell id="pGkirFBkEj9R97IxPver-62" style="edgeStyle=orthogonalEdgeStyle;rounded=0;orthogonalLoop=1;jettySize=auto;html=1;entryX=0;entryY=0.5;entryDx=0;entryDy=0;" edge="1" parent="1" source="pGkirFBkEj9R97IxPver-64" target="pGkirFBkEj9R97IxPver-44">
          <mxGeometry relative="1" as="geometry" />
        </mxCell>
        <mxCell id="pGkirFBkEj9R97IxPver-63" style="edgeStyle=orthogonalEdgeStyle;rounded=0;orthogonalLoop=1;jettySize=auto;html=1;entryX=0;entryY=0.5;entryDx=0;entryDy=0;strokeColor=#FF0000;" edge="1" parent="1" source="pGkirFBkEj9R97IxPver-64" target="pGkirFBkEj9R97IxPver-22">
          <mxGeometry relative="1" as="geometry">
            <Array as="points">
              <mxPoint x="-2010" y="796" />
              <mxPoint x="-2010" y="1287" />
            </Array>
          </mxGeometry>
        </mxCell>
        <mxCell id="pGkirFBkEj9R97IxPver-64" value="criou carrinho do pedido" style="rounded=0;whiteSpace=wrap;html=1;fontSize=25;strokeWidth=3;fillColor=#f2a413;strokeColor=#000000;" vertex="1" parent="1">
          <mxGeometry x="-2239" y="695.5" width="200" height="200" as="geometry" />
        </mxCell>
        <mxCell id="pGkirFBkEj9R97IxPver-65" value="gerenciou cardápio" style="rounded=0;whiteSpace=wrap;html=1;fontSize=25;strokeWidth=3;fillColor=#f2a413;strokeColor=#000000;" vertex="1" parent="1">
          <mxGeometry x="-5124" y="540" width="200" height="200" as="geometry" />
        </mxCell>
        <mxCell id="pGkirFBkEj9R97IxPver-66" value="cadastrou produtos no sistema" style="rounded=0;whiteSpace=wrap;html=1;fontSize=25;strokeWidth=3;fillColor=#f2a413;strokeColor=#000000;" vertex="1" parent="1">
          <mxGeometry x="-5138" y="950" width="200" height="200" as="geometry" />
        </mxCell>
        <mxCell id="pGkirFBkEj9R97IxPver-67" value="gerente" style="rounded=0;whiteSpace=wrap;html=1;fontSize=25;strokeWidth=3;fillColor=#f2e7ac;" vertex="1" parent="1">
          <mxGeometry x="-5528" y="687" width="110" height="200" as="geometry" />
        </mxCell>
        <mxCell id="pGkirFBkEj9R97IxPver-68" value="gerente" style="rounded=0;whiteSpace=wrap;html=1;fontSize=25;strokeWidth=3;fillColor=#f2e7ac;" vertex="1" parent="1">
          <mxGeometry x="-5178" y="695" width="110" height="200" as="geometry" />
        </mxCell>
        <mxCell id="pGkirFBkEj9R97IxPver-69" value="gerente" style="rounded=0;whiteSpace=wrap;html=1;fontSize=25;strokeWidth=3;fillColor=#f2e7ac;" vertex="1" parent="1">
          <mxGeometry x="-5188" y="1105" width="110" height="200" as="geometry" />
        </mxCell>
        <mxCell id="pGkirFBkEj9R97IxPver-70" value="gerente" style="rounded=0;whiteSpace=wrap;html=1;fontSize=25;strokeWidth=3;fillColor=#f2e7ac;" vertex="1" parent="1">
          <mxGeometry x="-5531" y="1073" width="110" height="200" as="geometry" />
        </mxCell>
        <mxCell id="pGkirFBkEj9R97IxPver-71" value="Totem" style="rounded=0;whiteSpace=wrap;html=1;fontSize=25;strokeWidth=3;fillColor=#f2e7ac;" vertex="1" parent="1">
          <mxGeometry x="-4491" y="863.5" width="110" height="200" as="geometry" />
        </mxCell>
        <mxCell id="pGkirFBkEj9R97IxPver-72" value="Totem" style="rounded=0;whiteSpace=wrap;html=1;fontSize=25;strokeWidth=3;fillColor=#f2e7ac;" vertex="1" parent="1">
          <mxGeometry x="-3579" y="863.5" width="110" height="200" as="geometry" />
        </mxCell>
        <mxCell id="pGkirFBkEj9R97IxPver-73" value="Cliente" style="rounded=0;whiteSpace=wrap;html=1;fontSize=25;strokeWidth=3;fillColor=#f2e7ac;" vertex="1" parent="1">
          <mxGeometry x="-3268" y="862.5" width="110" height="200" as="geometry" />
        </mxCell>
        <mxCell id="pGkirFBkEj9R97IxPver-74" value="gerente" style="rounded=0;whiteSpace=wrap;html=1;fontSize=25;strokeWidth=3;fillColor=#f2e7ac;" vertex="1" parent="1">
          <mxGeometry x="-4896" y="866" width="114" height="200" as="geometry" />
        </mxCell>
        <mxCell id="pGkirFBkEj9R97IxPver-75" value="gerente" style="rounded=0;whiteSpace=wrap;html=1;fontSize=25;strokeWidth=3;fillColor=#f2e7ac;" vertex="1" parent="1">
          <mxGeometry x="-2555" y="1662" width="110" height="200" as="geometry" />
        </mxCell>
        <mxCell id="pGkirFBkEj9R97IxPver-76" value="gerente" style="rounded=0;whiteSpace=wrap;html=1;fontSize=25;strokeWidth=3;fillColor=#f2e7ac;" vertex="1" parent="1">
          <mxGeometry x="-5880" y="876" width="110" height="200" as="geometry" />
        </mxCell>
        <mxCell id="pGkirFBkEj9R97IxPver-77" value="Cliente" style="rounded=0;whiteSpace=wrap;html=1;fontSize=25;strokeWidth=3;fillColor=#f2e7ac;" vertex="1" parent="1">
          <mxGeometry x="-3292" y="1336" width="110" height="200" as="geometry" />
        </mxCell>
        <mxCell id="pGkirFBkEj9R97IxPver-78" value="Totem" style="rounded=0;whiteSpace=wrap;html=1;fontSize=25;strokeWidth=3;fillColor=#f2e7ac;" vertex="1" parent="1">
          <mxGeometry x="-2937" y="866.5" width="110" height="200" as="geometry" />
        </mxCell>
        <mxCell id="pGkirFBkEj9R97IxPver-79" style="edgeStyle=orthogonalEdgeStyle;rounded=0;orthogonalLoop=1;jettySize=auto;html=1;entryX=0.5;entryY=1;entryDx=0;entryDy=0;" edge="1" parent="1" source="pGkirFBkEj9R97IxPver-80" target="pGkirFBkEj9R97IxPver-18">
          <mxGeometry relative="1" as="geometry" />
        </mxCell>
        <mxCell id="pGkirFBkEj9R97IxPver-80" value="Somente &lt;br&gt;para clientes &lt;br&gt;cadastrados" style="rhombus;whiteSpace=wrap;html=1;fontSize=21;strokeWidth=3;fillColor=#fb7b80;" vertex="1" parent="1">
          <mxGeometry x="-2857" y="1058.5" width="200" height="206" as="geometry" />
        </mxCell>
        <mxCell id="pGkirFBkEj9R97IxPver-81" style="edgeStyle=orthogonalEdgeStyle;rounded=0;orthogonalLoop=1;jettySize=auto;html=1;" edge="1" parent="1" source="pGkirFBkEj9R97IxPver-82" target="pGkirFBkEj9R97IxPver-54">
          <mxGeometry relative="1" as="geometry" />
        </mxCell>
        <mxCell id="pGkirFBkEj9R97IxPver-82" value="Somente &lt;br&gt;para clientes &lt;br&gt;cadastrados" style="rhombus;whiteSpace=wrap;html=1;fontSize=21;strokeWidth=3;fillColor=#fb7b80;" vertex="1" parent="1">
          <mxGeometry x="-4825" y="1070" width="200" height="206" as="geometry" />
        </mxCell>
        <mxCell id="pGkirFBkEj9R97IxPver-83" style="edgeStyle=orthogonalEdgeStyle;rounded=0;orthogonalLoop=1;jettySize=auto;html=1;" edge="1" parent="1" source="pGkirFBkEj9R97IxPver-84" target="pGkirFBkEj9R97IxPver-55">
          <mxGeometry relative="1" as="geometry" />
        </mxCell>
        <mxCell id="pGkirFBkEj9R97IxPver-84" value="escala de funcionários" style="rhombus;whiteSpace=wrap;html=1;fontSize=21;strokeWidth=3;fillColor=#fb7b80;" vertex="1" parent="1">
          <mxGeometry x="-5813" y="447" width="200" height="206" as="geometry" />
        </mxCell>
        <mxCell id="pGkirFBkEj9R97IxPver-85" value="Totem" style="rounded=0;whiteSpace=wrap;html=1;fontSize=25;strokeWidth=3;fillColor=#f2e7ac;" vertex="1" parent="1">
          <mxGeometry x="-2297" y="830.5" width="110" height="200" as="geometry" />
        </mxCell>
        <mxCell id="pGkirFBkEj9R97IxPver-86" value="Totem" style="rounded=0;whiteSpace=wrap;html=1;fontSize=25;strokeWidth=3;fillColor=#f2e7ac;" vertex="1" parent="1">
          <mxGeometry x="-1907.5" y="832.5" width="110" height="200" as="geometry" />
        </mxCell>
        <mxCell id="pGkirFBkEj9R97IxPver-87" style="edgeStyle=orthogonalEdgeStyle;rounded=0;orthogonalLoop=1;jettySize=auto;html=1;" edge="1" parent="1" source="pGkirFBkEj9R97IxPver-88" target="pGkirFBkEj9R97IxPver-20">
          <mxGeometry relative="1" as="geometry" />
        </mxCell>
        <mxCell id="pGkirFBkEj9R97IxPver-88" value="&lt;font style=&quot;font-size: 15px;&quot;&gt;tipos &lt;br&gt;de falha: &lt;br style=&quot;&quot;&gt;sistema de QR code, &lt;br&gt;notificar o pedido, erro para atualizar as &lt;br&gt;informações dos &lt;br&gt;pedidos&lt;/font&gt;" style="rhombus;whiteSpace=wrap;html=1;fontSize=13;strokeWidth=3;fillColor=#fb7b80;" vertex="1" parent="1">
          <mxGeometry x="-1582" y="1616" width="200" height="206" as="geometry" />
        </mxCell>
        <mxCell id="pGkirFBkEj9R97IxPver-89" value="Totem" style="rounded=0;whiteSpace=wrap;html=1;fontSize=25;strokeWidth=3;fillColor=#f2e7ac;" vertex="1" parent="1">
          <mxGeometry x="-1643" y="1456" width="110" height="200" as="geometry" />
        </mxCell>
        <mxCell id="pGkirFBkEj9R97IxPver-90" value="Cliente" style="rounded=0;whiteSpace=wrap;html=1;fontSize=25;strokeWidth=3;fillColor=#f2e7ac;" vertex="1" parent="1">
          <mxGeometry x="-2038" y="1329" width="110" height="200" as="geometry" />
        </mxCell>
        <mxCell id="pGkirFBkEj9R97IxPver-91" value="Atendente" style="rounded=0;whiteSpace=wrap;html=1;fontSize=21;strokeWidth=3;fillColor=#f2e7ac;" vertex="1" parent="1">
          <mxGeometry x="-453" y="1802" width="110" height="200" as="geometry" />
        </mxCell>
        <mxCell id="pGkirFBkEj9R97IxPver-92" value="Atendente" style="rounded=0;whiteSpace=wrap;html=1;fontSize=21;strokeWidth=3;fillColor=#f2e7ac;" vertex="1" parent="1">
          <mxGeometry x="-979" y="1428" width="110" height="200" as="geometry" />
        </mxCell>
        <mxCell id="pGkirFBkEj9R97IxPver-93" value="Cliente" style="rounded=0;whiteSpace=wrap;html=1;fontSize=21;strokeWidth=3;fillColor=#f2e7ac;" vertex="1" parent="1">
          <mxGeometry x="-78" y="1797" width="110" height="200" as="geometry" />
        </mxCell>
        <mxCell id="pGkirFBkEj9R97IxPver-94" value="Atendente" style="rounded=0;whiteSpace=wrap;html=1;fontSize=21;strokeWidth=3;fillColor=#f2e7ac;" vertex="1" parent="1">
          <mxGeometry x="-652" y="1451" width="110" height="200" as="geometry" />
        </mxCell>
        <mxCell id="pGkirFBkEj9R97IxPver-95" value="Totem" style="rounded=0;whiteSpace=wrap;html=1;fontSize=25;strokeWidth=3;fillColor=#f2e7ac;" vertex="1" parent="1">
          <mxGeometry x="-1584" y="826" width="110" height="200" as="geometry" />
        </mxCell>
        <mxCell id="pGkirFBkEj9R97IxPver-96" value="Cliente" style="rounded=0;whiteSpace=wrap;html=1;fontSize=25;strokeWidth=3;fillColor=#f2e7ac;" vertex="1" parent="1">
          <mxGeometry x="-1273" y="839.5" width="110" height="200" as="geometry" />
        </mxCell>
        <mxCell id="pGkirFBkEj9R97IxPver-97" style="edgeStyle=orthogonalEdgeStyle;rounded=0;orthogonalLoop=1;jettySize=auto;html=1;" edge="1" parent="1" source="pGkirFBkEj9R97IxPver-98" target="pGkirFBkEj9R97IxPver-48">
          <mxGeometry relative="1" as="geometry" />
        </mxCell>
        <mxCell id="pGkirFBkEj9R97IxPver-98" value="Pagamento&lt;br&gt;&amp;nbsp;em dinheiro somente com o &lt;br&gt;atendente" style="rhombus;whiteSpace=wrap;html=1;fontSize=21;strokeWidth=3;fillColor=#fb7b80;" vertex="1" parent="1">
          <mxGeometry x="-1504" y="392" width="200" height="206" as="geometry" />
        </mxCell>
        <mxCell id="pGkirFBkEj9R97IxPver-99" value="Totem" style="rounded=0;whiteSpace=wrap;html=1;fontSize=25;strokeWidth=3;fillColor=#f2e7ac;" vertex="1" parent="1">
          <mxGeometry x="-673" y="856.5" width="110" height="200" as="geometry" />
        </mxCell>
        <mxCell id="pGkirFBkEj9R97IxPver-100" value="Totem" style="rounded=0;whiteSpace=wrap;html=1;fontSize=25;strokeWidth=3;fillColor=#f2e7ac;" vertex="1" parent="1">
          <mxGeometry x="-334" y="842.5" width="110" height="200" as="geometry" />
        </mxCell>
        <mxCell id="pGkirFBkEj9R97IxPver-101" value="Avaliou a satisfação dos&lt;br&gt;clientes" style="rounded=0;whiteSpace=wrap;html=1;fontSize=25;strokeWidth=3;fillColor=#f2a413;fontStyle=0;strokeColor=#000000;" vertex="1" parent="1">
          <mxGeometry x="105" y="43" width="200" height="200" as="geometry" />
        </mxCell>
        <mxCell id="pGkirFBkEj9R97IxPver-102" value="gerente" style="rounded=0;whiteSpace=wrap;html=1;fontSize=25;strokeWidth=3;fillColor=#f2e7ac;" vertex="1" parent="1">
          <mxGeometry x="29" y="172" width="110" height="200" as="geometry" />
        </mxCell>
        <mxCell id="pGkirFBkEj9R97IxPver-103" value="Totem" style="rounded=0;whiteSpace=wrap;html=1;fontSize=25;strokeWidth=3;fillColor=#f2e7ac;" vertex="1" parent="1">
          <mxGeometry x="-993" y="842.5" width="110" height="200" as="geometry" />
        </mxCell>
        <mxCell id="pGkirFBkEj9R97IxPver-104" value="sistema" style="rounded=0;whiteSpace=wrap;html=1;fontSize=25;strokeWidth=3;fillColor=#f2e7ac;" vertex="1" parent="1">
          <mxGeometry x="89" y="868.5" width="110" height="200" as="geometry" />
        </mxCell>
        <mxCell id="pGkirFBkEj9R97IxPver-105" style="edgeStyle=orthogonalEdgeStyle;rounded=0;orthogonalLoop=1;jettySize=auto;html=1;entryX=0.5;entryY=1;entryDx=0;entryDy=0;" edge="1" parent="1" source="pGkirFBkEj9R97IxPver-106" target="pGkirFBkEj9R97IxPver-50">
          <mxGeometry relative="1" as="geometry" />
        </mxCell>
        <mxCell id="pGkirFBkEj9R97IxPver-106" value="&lt;span style=&quot;font-size: 15px;&quot;&gt;Impressão, ou &lt;br&gt;via tablet&lt;/span&gt;" style="rhombus;whiteSpace=wrap;html=1;fontSize=13;strokeWidth=3;fillColor=#fb7b80;" vertex="1" parent="1">
          <mxGeometry x="148" y="1042.5" width="200" height="206" as="geometry" />
        </mxCell>
        <mxCell id="pGkirFBkEj9R97IxPver-107" value="Totem" style="rounded=0;whiteSpace=wrap;html=1;fontSize=25;strokeWidth=3;fillColor=#f2e7ac;" vertex="1" parent="1">
          <mxGeometry x="-3888" y="863.5" width="110" height="200" as="geometry" />
        </mxCell>
        <mxCell id="pGkirFBkEj9R97IxPver-108" value="Cozinheiro" style="rounded=0;whiteSpace=wrap;html=1;fontSize=21;strokeWidth=3;fillColor=#f2e7ac;" vertex="1" parent="1">
          <mxGeometry x="707" y="876" width="110" height="200" as="geometry" />
        </mxCell>
        <mxCell id="pGkirFBkEj9R97IxPver-109" value="Cozinheiro" style="rounded=0;whiteSpace=wrap;html=1;fontSize=21;strokeWidth=3;fillColor=#f2e7ac;" vertex="1" parent="1">
          <mxGeometry x="1367" y="858.5" width="110" height="200" as="geometry" />
        </mxCell>
        <mxCell id="pGkirFBkEj9R97IxPver-110" value="Cozinheiro" style="rounded=0;whiteSpace=wrap;html=1;fontSize=21;strokeWidth=3;fillColor=#f2e7ac;" vertex="1" parent="1">
          <mxGeometry x="1645" y="873" width="110" height="200" as="geometry" />
        </mxCell>
        <mxCell id="pGkirFBkEj9R97IxPver-111" value="Atendente" style="rounded=0;whiteSpace=wrap;html=1;fontSize=21;strokeWidth=3;fillColor=#f2e7ac;" vertex="1" parent="1">
          <mxGeometry x="1981" y="854.5" width="110" height="200" as="geometry" />
        </mxCell>
        <mxCell id="pGkirFBkEj9R97IxPver-112" value="Cliente" style="rounded=0;whiteSpace=wrap;html=1;fontSize=21;strokeWidth=3;fillColor=#f2e7ac;" vertex="1" parent="1">
          <mxGeometry x="2318" y="844.5" width="110" height="200" as="geometry" />
        </mxCell>
        <mxCell id="pGkirFBkEj9R97IxPver-113" value="Atendente" style="rounded=0;whiteSpace=wrap;html=1;fontSize=21;strokeWidth=3;fillColor=#f2e7ac;" vertex="1" parent="1">
          <mxGeometry x="2692" y="866.5" width="110" height="200" as="geometry" />
        </mxCell>
        <mxCell id="pGkirFBkEj9R97IxPver-114" value="Cozinheiro" style="rounded=0;whiteSpace=wrap;html=1;fontSize=21;strokeWidth=3;fillColor=#f2e7ac;" vertex="1" parent="1">
          <mxGeometry x="1022" y="884" width="110" height="200" as="geometry" />
        </mxCell>
        <mxCell id="pGkirFBkEj9R97IxPver-115" value="sistema" style="rounded=0;whiteSpace=wrap;html=1;fontSize=25;strokeWidth=3;fillColor=#f2e7ac;" vertex="1" parent="1">
          <mxGeometry x="404" y="870" width="110" height="200" as="geometry" />
        </mxCell>
        <mxCell id="pGkirFBkEj9R97IxPver-116" value="Gerente" style="rounded=0;whiteSpace=wrap;html=1;fontSize=21;strokeWidth=3;fillColor=#f2e7ac;" vertex="1" parent="1">
          <mxGeometry x="282" y="1818" width="110" height="200" as="geometry" />
        </mxCell>
        <mxCell id="pGkirFBkEj9R97IxPver-117" value="" style="endArrow=block;html=1;rounded=0;fontStyle=1;strokeWidth=22;endFill=1;" edge="1" parent="1">
          <mxGeometry width="50" height="50" relative="1" as="geometry">
            <mxPoint x="-5835" y="2160" as="sourcePoint" />
            <mxPoint x="3109.9996337890625" y="2154" as="targetPoint" />
          </mxGeometry>
        </mxCell>
        <mxCell id="pGkirFBkEj9R97IxPver-118" value="Tempo" style="text;html=1;strokeColor=none;fillColor=none;align=center;verticalAlign=middle;whiteSpace=wrap;rounded=0;fontStyle=1;fontSize=50;" vertex="1" parent="1">
          <mxGeometry x="-3270.996284760845" y="2068" width="2382.013348164628" height="72" as="geometry" />
        </mxCell>
        <mxCell id="pGkirFBkEj9R97IxPver-119" style="edgeStyle=orthogonalEdgeStyle;rounded=0;orthogonalLoop=1;jettySize=auto;html=1;" edge="1" parent="1" source="pGkirFBkEj9R97IxPver-120" target="pGkirFBkEj9R97IxPver-24">
          <mxGeometry relative="1" as="geometry" />
        </mxCell>
        <mxCell id="pGkirFBkEj9R97IxPver-120" value="tocou no totem" style="rounded=0;whiteSpace=wrap;html=1;fontSize=25;strokeWidth=3;fillColor=#f2a413;strokeColor=#000000;" vertex="1" parent="1">
          <mxGeometry x="-4115" y="696.5" width="200" height="200" as="geometry" />
        </mxCell>
        <mxCell id="pGkirFBkEj9R97IxPver-121" value="Cliente" style="rounded=0;whiteSpace=wrap;html=1;fontSize=25;strokeWidth=3;fillColor=#f2e7ac;" vertex="1" parent="1">
          <mxGeometry x="-4196" y="863.5" width="110" height="200" as="geometry" />
        </mxCell>
        <mxCell id="pGkirFBkEj9R97IxPver-122" value="" style="endArrow=none;html=1;rounded=0;strokeWidth=12;" edge="1" parent="1" source="pGkirFBkEj9R97IxPver-124">
          <mxGeometry width="50" height="50" relative="1" as="geometry">
            <mxPoint x="-5509" y="345" as="sourcePoint" />
            <mxPoint x="-4564" y="349" as="targetPoint" />
          </mxGeometry>
        </mxCell>
        <mxCell id="pGkirFBkEj9R97IxPver-123" value="" style="endArrow=none;html=1;rounded=0;strokeWidth=12;" edge="1" parent="1" target="pGkirFBkEj9R97IxPver-124">
          <mxGeometry width="50" height="50" relative="1" as="geometry">
            <mxPoint x="-5845" y="342" as="sourcePoint" />
            <mxPoint x="-4564" y="349" as="targetPoint" />
          </mxGeometry>
        </mxCell>
        <mxCell id="pGkirFBkEj9R97IxPver-124" value="" style="ellipse;whiteSpace=wrap;html=1;aspect=fixed;fillColor=#000000;" vertex="1" parent="1">
          <mxGeometry x="-5085" y="329" width="36" height="36" as="geometry" />
        </mxCell>
        <mxCell id="pGkirFBkEj9R97IxPver-125" value="Premissas" style="text;html=1;strokeColor=none;fillColor=none;align=center;verticalAlign=middle;whiteSpace=wrap;rounded=0;fontStyle=1;fontSize=25;" vertex="1" parent="1">
          <mxGeometry x="-5157" y="288" width="180" height="30" as="geometry" />
        </mxCell>
        <mxCell id="pGkirFBkEj9R97IxPver-126" value="" style="endArrow=none;html=1;rounded=0;strokeWidth=12;" edge="1" parent="1" source="pGkirFBkEj9R97IxPver-128">
          <mxGeometry width="50" height="50" relative="1" as="geometry">
            <mxPoint x="-4377" y="345" as="sourcePoint" />
            <mxPoint x="-463" y="338" as="targetPoint" />
          </mxGeometry>
        </mxCell>
        <mxCell id="pGkirFBkEj9R97IxPver-127" value="" style="endArrow=none;html=1;rounded=0;strokeWidth=12;" edge="1" parent="1" target="pGkirFBkEj9R97IxPver-128">
          <mxGeometry width="50" height="50" relative="1" as="geometry">
            <mxPoint x="-4470" y="345" as="sourcePoint" />
            <mxPoint x="-3432" y="349" as="targetPoint" />
          </mxGeometry>
        </mxCell>
        <mxCell id="pGkirFBkEj9R97IxPver-128" value="" style="ellipse;whiteSpace=wrap;html=1;aspect=fixed;fillColor=#000000;" vertex="1" parent="1">
          <mxGeometry x="-2405" y="318" width="36" height="36" as="geometry" />
        </mxCell>
        <mxCell id="pGkirFBkEj9R97IxPver-129" value="Pedido" style="text;html=1;strokeColor=none;fillColor=none;align=center;verticalAlign=middle;whiteSpace=wrap;rounded=0;fontStyle=1;fontSize=25;" vertex="1" parent="1">
          <mxGeometry x="-2474" y="267" width="180" height="30" as="geometry" />
        </mxCell>
        <mxCell id="pGkirFBkEj9R97IxPver-130" style="edgeStyle=orthogonalEdgeStyle;rounded=0;orthogonalLoop=1;jettySize=auto;html=1;entryX=0;entryY=0.5;entryDx=0;entryDy=0;" edge="1" parent="1" source="pGkirFBkEj9R97IxPver-131" target="pGkirFBkEj9R97IxPver-64">
          <mxGeometry relative="1" as="geometry" />
        </mxCell>
        <mxCell id="pGkirFBkEj9R97IxPver-131" value="escolheu pedido" style="rounded=0;whiteSpace=wrap;html=1;fontSize=25;strokeWidth=3;fillColor=#f2a413;strokeColor=#000000;" vertex="1" parent="1">
          <mxGeometry x="-2547" y="696.5" width="200" height="200" as="geometry" />
        </mxCell>
        <mxCell id="pGkirFBkEj9R97IxPver-132" value="cliente" style="rounded=0;whiteSpace=wrap;html=1;fontSize=25;strokeWidth=3;fillColor=#f2e7ac;" vertex="1" parent="1">
          <mxGeometry x="-2617" y="837.5" width="110" height="200" as="geometry" />
        </mxCell>
        <mxCell id="pGkirFBkEj9R97IxPver-133" value="Cozinheiro" style="rounded=0;whiteSpace=wrap;html=1;fontSize=21;strokeWidth=3;fillColor=#f2e7ac;" vertex="1" parent="1">
          <mxGeometry x="1027" y="1280.5" width="110" height="200" as="geometry" />
        </mxCell>
        <mxCell id="pGkirFBkEj9R97IxPver-134" value="" style="endArrow=none;html=1;rounded=0;strokeWidth=12;" edge="1" parent="1" source="pGkirFBkEj9R97IxPver-136">
          <mxGeometry width="50" height="50" relative="1" as="geometry">
            <mxPoint x="468" y="573.5" as="sourcePoint" />
            <mxPoint x="1949" y="589" as="targetPoint" />
          </mxGeometry>
        </mxCell>
        <mxCell id="pGkirFBkEj9R97IxPver-135" value="" style="endArrow=none;html=1;rounded=0;strokeWidth=12;" edge="1" parent="1" target="pGkirFBkEj9R97IxPver-136">
          <mxGeometry width="50" height="50" relative="1" as="geometry">
            <mxPoint x="127" y="574" as="sourcePoint" />
            <mxPoint x="1413" y="577.5" as="targetPoint" />
          </mxGeometry>
        </mxCell>
        <mxCell id="pGkirFBkEj9R97IxPver-136" value="" style="ellipse;whiteSpace=wrap;html=1;aspect=fixed;fillColor=#000000;" vertex="1" parent="1">
          <mxGeometry x="1015" y="560" width="36" height="36" as="geometry" />
        </mxCell>
        <mxCell id="pGkirFBkEj9R97IxPver-137" value="Preparo" style="text;html=1;strokeColor=none;fillColor=none;align=center;verticalAlign=middle;whiteSpace=wrap;rounded=0;fontStyle=1;fontSize=25;" vertex="1" parent="1">
          <mxGeometry x="952" y="513" width="180" height="30" as="geometry" />
        </mxCell>
        <mxCell id="pGkirFBkEj9R97IxPver-138" value="" style="endArrow=none;html=1;rounded=0;strokeWidth=12;" edge="1" parent="1" source="pGkirFBkEj9R97IxPver-140">
          <mxGeometry width="50" height="50" relative="1" as="geometry">
            <mxPoint x="2327" y="585.5" as="sourcePoint" />
            <mxPoint x="3183" y="595" as="targetPoint" />
          </mxGeometry>
        </mxCell>
        <mxCell id="pGkirFBkEj9R97IxPver-139" value="" style="endArrow=none;html=1;rounded=0;strokeWidth=12;" edge="1" parent="1" target="pGkirFBkEj9R97IxPver-140">
          <mxGeometry width="50" height="50" relative="1" as="geometry">
            <mxPoint x="1986" y="586" as="sourcePoint" />
            <mxPoint x="3272" y="589.5" as="targetPoint" />
          </mxGeometry>
        </mxCell>
        <mxCell id="pGkirFBkEj9R97IxPver-140" value="" style="ellipse;whiteSpace=wrap;html=1;aspect=fixed;fillColor=#000000;" vertex="1" parent="1">
          <mxGeometry x="2495" y="571" width="36" height="36" as="geometry" />
        </mxCell>
        <mxCell id="pGkirFBkEj9R97IxPver-141" value="Entrega" style="text;html=1;strokeColor=none;fillColor=none;align=center;verticalAlign=middle;whiteSpace=wrap;rounded=0;fontStyle=1;fontSize=25;" vertex="1" parent="1">
          <mxGeometry x="2412" y="513" width="214" height="38" as="geometry" />
        </mxCell>
        <mxCell id="pGkirFBkEj9R97IxPver-142" style="edgeStyle=orthogonalEdgeStyle;rounded=0;orthogonalLoop=1;jettySize=auto;html=1;entryX=0;entryY=0.5;entryDx=0;entryDy=0;strokeColor=#FF0000;" edge="1" parent="1" source="pGkirFBkEj9R97IxPver-143" target="pGkirFBkEj9R97IxPver-6">
          <mxGeometry relative="1" as="geometry" />
        </mxCell>
        <mxCell id="pGkirFBkEj9R97IxPver-143" value="fez pedido no caixa" style="rounded=0;whiteSpace=wrap;html=1;fontSize=21;strokeWidth=3;fillColor=#f2a413;fontStyle=0;strokeColor=#000000;dashed=1;" vertex="1" parent="1">
          <mxGeometry x="-1228" y="1308" width="200" height="200" as="geometry" />
        </mxCell>
        <mxCell id="pGkirFBkEj9R97IxPver-144" value="Cliente" style="rounded=0;whiteSpace=wrap;html=1;fontSize=25;strokeWidth=3;fillColor=#f2e7ac;" vertex="1" parent="1">
          <mxGeometry x="-1283" y="1475" width="110" height="200" as="geometry" />
        </mxCell>
        <mxCell id="pGkirFBkEj9R97IxPver-145" value="" style="endArrow=none;html=1;rounded=0;strokeWidth=12;" edge="1" parent="1" source="pGkirFBkEj9R97IxPver-147">
          <mxGeometry width="50" height="50" relative="1" as="geometry">
            <mxPoint x="-107" y="1594.5" as="sourcePoint" />
            <mxPoint x="749" y="1604" as="targetPoint" />
          </mxGeometry>
        </mxCell>
        <mxCell id="pGkirFBkEj9R97IxPver-146" value="" style="endArrow=none;html=1;rounded=0;strokeWidth=12;" edge="1" parent="1" target="pGkirFBkEj9R97IxPver-147">
          <mxGeometry width="50" height="50" relative="1" as="geometry">
            <mxPoint x="-448" y="1595" as="sourcePoint" />
            <mxPoint x="838" y="1598.5" as="targetPoint" />
          </mxGeometry>
        </mxCell>
        <mxCell id="pGkirFBkEj9R97IxPver-147" value="" style="ellipse;whiteSpace=wrap;html=1;aspect=fixed;fillColor=#000000;" vertex="1" parent="1">
          <mxGeometry x="61" y="1580" width="36" height="36" as="geometry" />
        </mxCell>
        <mxCell id="pGkirFBkEj9R97IxPver-148" value="Resolução de conflitos" style="text;html=1;strokeColor=none;fillColor=none;align=center;verticalAlign=middle;whiteSpace=wrap;rounded=0;fontStyle=1;fontSize=25;" vertex="1" parent="1">
          <mxGeometry x="-22" y="1522" width="307" height="38" as="geometry" />
        </mxCell>
        <mxCell id="pGkirFBkEj9R97IxPver-149" value="" style="endArrow=none;html=1;rounded=0;strokeWidth=12;" edge="1" parent="1" source="pGkirFBkEj9R97IxPver-151">
          <mxGeometry width="50" height="50" relative="1" as="geometry">
            <mxPoint x="-1237" y="1254.5" as="sourcePoint" />
            <mxPoint x="-381" y="1264" as="targetPoint" />
          </mxGeometry>
        </mxCell>
        <mxCell id="pGkirFBkEj9R97IxPver-150" value="" style="endArrow=none;html=1;rounded=0;strokeWidth=12;" edge="1" parent="1" target="pGkirFBkEj9R97IxPver-151">
          <mxGeometry width="50" height="50" relative="1" as="geometry">
            <mxPoint x="-1578" y="1255" as="sourcePoint" />
            <mxPoint x="-292" y="1258.5" as="targetPoint" />
          </mxGeometry>
        </mxCell>
        <mxCell id="pGkirFBkEj9R97IxPver-151" value="" style="ellipse;whiteSpace=wrap;html=1;aspect=fixed;fillColor=#000000;" vertex="1" parent="1">
          <mxGeometry x="-1069" y="1240" width="36" height="36" as="geometry" />
        </mxCell>
        <mxCell id="pGkirFBkEj9R97IxPver-152" value="Resolução de conflitos" style="text;html=1;strokeColor=none;fillColor=none;align=center;verticalAlign=middle;whiteSpace=wrap;rounded=0;fontStyle=1;fontSize=25;" vertex="1" parent="1">
          <mxGeometry x="-1152" y="1182" width="307" height="38" as="geometry" />
        </mxCell>
      </root>
    </mxGraphModel>
  </diagram>
</mxfile>
